<svg width="307" height="56" viewBox="0 0 307 56" fill="none" xmlns="http://www.w3.org/2000/svg">
<path d="M56.4144 27.9991C56.4144 43.4386 43.761 56 28.2082 56C12.6544 56 0 43.439 0 27.9991C0 12.5614 12.6539 0 28.2082 0C29.4091 0 30.5921 0.0745077 31.7533 0.221252C32.5876 0.381172 33.7098 0.609703 34.2609 0.845494C37.1662 2.08623 38.6404 4.4882 39.1526 5.59219C40.0995 7.44535 40.1184 8.55479 40.1449 9.46478C40.1495 9.61335 40.1476 10.1331 40.1476 10.2553L40.1055 32.9171C40.1032 33.6008 39.6771 34.2123 39.0322 34.4531C38.3878 34.6916 37.6615 34.5122 37.207 34.002L25.1426 20.4134L25.1696 47.825C25.1696 48.7318 24.43 49.4706 23.5161 49.4706H23.5142C22.6002 49.4706 21.8588 48.7364 21.8588 47.8296L21.828 16.0596C21.828 15.3759 22.2542 14.7644 22.8964 14.5218C23.5431 14.2805 24.2694 14.46 24.7238 14.9729L36.8019 28.5743L36.8372 10.2489C36.8372 10.1258 36.8386 9.72102 36.8395 9.63106C36.8427 9.24807 36.678 7.87513 35.8839 6.63257C34.8729 5.05246 33.7048 4.11839 31.8091 3.54414C30.5775 3.20022 29.432 3.29244 28.209 3.28563C15.1094 3.20703 3.31225 14.3723 3.31225 27.9986C3.31225 41.6268 14.4805 52.713 28.209 52.713C41.9358 52.713 53.1045 41.6268 53.1045 27.9986C53.1045 25.1192 52.6038 22.3547 51.6852 19.7841C51.6962 19.7778 51.542 19.3003 51.542 19.0391C51.542 18.13 52.283 17.394 53.1993 17.394C53.764 17.394 54.2629 17.6566 54.559 18.0859C54.592 18.13 54.7663 18.5638 54.8235 18.7279C55.8537 21.6314 56.4144 24.7521 56.4144 27.9991Z" fill="#041427"/>
<path d="M47.7335 14.5534C49.7043 14.5534 51.3021 12.9674 51.3021 11.0111C51.3021 9.05469 49.7043 7.46875 47.7335 7.46875C45.7627 7.46875 44.165 9.05469 44.165 11.0111C44.165 12.9674 45.7627 14.5534 47.7335 14.5534Z" fill="#041427"/>
<path d="M70.0576 40.862C64.6012 40.862 60.1621 35.4992 60.1621 28.9076C60.1621 22.3159 64.6012 16.9531 70.0576 16.9531C75.5136 16.9531 79.9526 22.3159 79.9526 28.9076C79.9526 35.4997 75.5136 40.862 70.0576 40.862ZM70.0576 19.6795C66.1156 19.6795 62.9082 23.8192 62.9082 28.908C62.9082 33.9968 66.1156 38.1365 70.0576 38.1365C73.9996 38.1365 77.2065 33.9968 77.2065 28.908C77.2065 23.8192 74.0001 19.6795 70.0576 19.6795Z" fill="#041427"/>
<path d="M92.3176 40.8635C92.3039 40.8635 92.2893 40.8635 92.2751 40.863C91.7487 40.8467 91.2772 40.5323 91.0631 40.0548L81.4518 18.6201C81.1438 17.9323 81.4555 17.1268 82.1479 16.8206C82.8427 16.5157 83.6524 16.8247 83.9609 17.5116L92.4155 36.3662L102.084 17.9586C102.435 17.2913 103.264 17.0309 103.937 17.3803C104.61 17.7283 104.87 18.5515 104.519 19.2189L93.535 40.1302C93.2984 40.5818 92.828 40.8635 92.3176 40.8635Z" fill="#041427"/>
<path d="M140.196 15.375C134.74 15.375 130.301 20.7359 130.301 27.3281C130.301 33.9202 134.74 39.2816 140.196 39.2816C143.843 39.2816 147.038 36.8869 148.749 33.3255C148.832 33.1574 148.91 32.9848 148.983 32.8076C149.001 32.7254 149.011 32.6395 149.011 32.5527C149.011 32.1711 148.841 31.8304 148.567 31.5896C148.32 31.3674 147.985 31.2307 147.619 31.2307C147.299 31.2307 147.006 31.3351 146.773 31.5078C146.708 31.6032 146.722 31.6577 146.658 31.7168C145.491 34.7652 143.001 36.5552 140.196 36.5552C136.635 36.5552 133.678 33.1842 133.138 28.786H148.718C149.528 28.786 150.187 28.1363 150.187 27.3276V26.7961C149.949 20.4588 145.496 15.375 140.196 15.375ZM133.138 25.8697C133.678 21.4719 136.635 18.1009 140.196 18.1009C143.752 18.1009 146.713 21.4719 147.253 25.8697H133.138Z" fill="#041427"/>
<path d="M122.179 29.7678C122.197 29.0586 122.174 28.3231 122.261 27.628C122.33 27.6507 122.747 27.7138 123.2 27.7007C123.749 27.687 124.047 27.4326 124.98 27.3281C124.953 28.2095 125.012 28.9818 124.994 29.786C124.953 31.6528 125.74 33.475 127.04 34.8244C127.937 35.7602 129.054 36.4099 130.276 36.737C130.99 36.8279 131.539 37.4367 131.539 38.1727C131.539 38.6497 131.31 39.0718 130.948 39.3357C130.706 39.5174 130.404 39.6269 130.074 39.6269C129.974 39.6269 129.873 39.6174 129.781 39.5951C129.726 39.586 129.676 39.5724 129.626 39.5588C127.849 39.1045 126.23 38.1731 124.935 36.8238C123.099 34.9152 122.119 32.4069 122.179 29.7678Z" fill="#041427"/>
<path d="M115.026 40.7377C109.57 40.7377 105.131 35.3749 105.131 28.7832C105.131 22.1915 109.57 16.8288 115.026 16.8288C116.758 16.8288 123.398 16.7043 123.465 16.7034L124.314 16.6875L124.708 17.4348C125.021 18.0305 125.055 19.0104 124.964 24.9274C124.942 26.3113 124.921 27.6788 124.921 28.7832C124.921 35.3749 120.482 40.7377 115.026 40.7377ZM122.249 19.452C120.213 19.4884 116.329 19.5551 115.026 19.5551C111.084 19.5551 107.877 23.6949 107.877 28.7837C107.877 33.8725 111.084 38.0122 115.026 38.0122C118.968 38.0122 122.175 33.8725 122.175 28.7837C122.175 27.667 122.196 26.2849 122.218 24.8866C122.246 23.0779 122.281 20.7782 122.249 19.452Z" fill="#041427"/>
<path d="M191.649 39.1055L188.038 29.3609C188.025 29.315 188.006 29.2746 187.992 29.2337L179.804 7.13119C179.603 6.58146 179.067 6.20438 178.481 6.23618C177.895 6.24981 177.383 6.63598 177.204 7.19025L167.08 39.2378C166.851 39.9556 167.254 40.7238 167.977 40.9464C168.115 40.9919 168.252 41.01 168.389 41.01C168.975 41.01 169.515 40.6375 169.698 40.056L172.549 31.0287C172.714 31.0923 172.892 31.1287 173.08 31.1287H185.762L189.067 40.0469C189.332 40.7561 190.12 41.1191 190.833 40.8556C191.544 40.5962 191.91 39.8147 191.649 39.1055ZM173.383 28.4023L178.619 11.8288L184.756 28.4023H173.383Z" fill="#041427"/>
<path d="M199.7 40.9335C199.687 40.9335 199.672 40.9335 199.658 40.9331C199.131 40.9167 198.66 40.6023 198.446 40.1248L188.835 18.6902C188.527 18.0023 188.838 17.1968 189.531 16.8906C190.225 16.5862 191.035 16.8947 191.344 17.5816L199.798 36.4363L209.467 18.0287C209.818 17.3613 210.647 17.1014 211.319 17.4504C211.992 17.7984 212.253 18.6216 211.902 19.289L200.918 40.2003C200.681 40.6518 200.211 40.9335 199.7 40.9335Z" fill="#041427"/>
<path d="M222.178 16.8281C216.722 16.8281 212.283 22.189 212.283 28.7811C212.283 35.3733 216.722 40.7347 222.178 40.7347C225.825 40.7347 229.02 38.34 230.731 34.7786C230.814 34.6105 230.892 34.4378 230.965 34.2607C230.983 34.1784 230.993 34.0926 230.993 34.0058C230.993 33.6242 230.823 33.2834 230.549 33.0426C230.302 32.8205 229.967 32.6837 229.601 32.6837C229.281 32.6837 228.988 32.7882 228.755 32.9609C228.69 33.0563 228.704 33.1108 228.64 33.1698C227.473 36.2183 224.983 38.0083 222.178 38.0083C218.617 38.0083 215.66 34.6373 215.12 30.239H230.7C231.51 30.239 232.169 29.5894 232.169 28.7807V28.2491C231.931 21.9119 227.478 16.8281 222.178 16.8281ZM215.12 27.3228C215.66 22.925 218.617 19.554 222.178 19.554C225.734 19.554 228.695 22.925 229.235 27.3228H215.12Z" fill="#041427"/>
<path d="M284.271 29.658C284.271 29.6489 284.299 29.4535 284.284 29.4485V18.4182C284.284 17.6908 283.694 17.1047 282.962 17.1047C282.229 17.1047 281.639 17.6908 281.639 18.4182C281.639 18.4182 281.644 29.7893 281.652 29.8533C281.414 34.66 277.767 38.4622 273.442 38.4622C269.08 38.4622 265.739 34.5464 265.565 29.6852C265.57 29.6534 265.57 29.6262 265.57 29.5944V18.191C265.57 17.4368 264.957 16.8281 264.197 16.8281C263.437 16.8281 262.824 17.4368 262.824 18.191V29.3263C262.815 29.34 262.81 29.3536 262.81 29.3672C262.81 36.0048 267.359 41.3521 273.442 41.3521C279.524 41.3521 284.271 36.296 284.271 29.658Z" fill="#041427"/>
<path d="M259.857 28.1081C259.857 28.1172 259.885 28.3126 259.871 28.3176V39.3479C259.871 40.0753 259.28 40.6613 258.548 40.6613C257.816 40.6613 257.225 40.0753 257.225 39.3479C257.225 39.3479 257.23 27.9768 257.238 27.9128C257 23.1061 253.353 19.3039 249.028 19.3039C244.666 19.3039 241.325 23.2197 241.151 28.0809C241.156 28.1127 241.156 28.1399 241.156 28.1717V39.5751C241.156 40.3292 240.543 40.938 239.783 40.938C239.023 40.938 238.41 40.3292 238.41 39.5751V28.4398C238.401 28.4261 238.396 28.4125 238.396 28.3989C238.396 21.7613 242.946 16.414 249.028 16.414C255.111 16.414 259.857 21.4706 259.857 28.1081Z" fill="#041427"/>
<path d="M241.211 26.9841C241.193 27.6933 241.216 28.4288 241.129 29.1239C241.06 29.1012 240.643 29.038 240.19 29.0512C239.641 29.0648 239.343 29.3193 238.41 29.4238C238.437 28.5424 238.378 27.77 238.396 26.9659C238.437 25.0991 237.65 23.2768 236.35 21.9275C235.453 20.9916 234.336 20.342 233.114 20.0149C232.4 19.924 231.851 19.3152 231.851 18.5792C231.851 18.1022 232.08 17.6801 232.441 17.4162C232.684 17.2344 232.986 17.1249 233.316 17.1249C233.416 17.1249 233.517 17.1345 233.609 17.1567C233.663 17.1658 233.714 17.1795 233.764 17.1931C235.54 17.6474 237.16 18.5788 238.455 19.9281C240.291 21.8367 241.271 24.3445 241.211 26.9841Z" fill="#041427"/>
<path d="M297.009 15.7187C291.553 15.7187 287.114 21.0796 287.114 27.6718C287.114 34.2639 291.553 39.6253 297.009 39.6253C300.656 39.6253 303.851 37.2306 305.562 33.6692C305.645 33.5011 305.723 33.3285 305.796 33.1513C305.814 33.069 305.824 32.9832 305.824 32.8964C305.824 32.5148 305.654 32.174 305.38 31.9333C305.133 31.7111 304.798 31.5744 304.432 31.5744C304.112 31.5744 303.819 31.6788 303.586 31.8515C303.521 31.9469 303.535 32.0014 303.471 32.0605C302.304 35.1089 299.814 36.8989 297.009 36.8989C293.448 36.8989 290.491 33.5279 289.951 29.1297H305.531C306.341 29.1297 307 28.48 307 27.6713V27.1398C306.762 20.802 302.309 15.7187 297.009 15.7187ZM289.951 26.213C290.491 21.8152 293.448 18.4441 297.009 18.4441C300.565 18.4441 303.526 21.8152 304.066 26.213H289.951Z" fill="#041427"/>
</svg>
